<svg width="129" height="45" viewBox="0 0 129 45" fill="none" xmlns="http://www.w3.org/2000/svg">
<path d="M127.16 30.7603C127.16 32.2416 127.04 33.5062 126.799 34.554C126.426 36.1798 125.534 37.6612 124.125 38.998C122.126 40.8888 119.452 41.8342 116.104 41.8342C112.696 41.8342 110.034 40.8707 108.119 38.9438C107.108 37.9321 106.415 36.6616 106.042 35.132C105.777 34.0481 105.645 32.5909 105.645 30.7603V16.543H112.058V29.8931C112.058 30.965 112.076 31.7659 112.112 32.2958C112.232 33.9698 112.997 35.1381 114.406 35.8004C114.984 36.0774 115.623 36.2159 116.321 36.2159C117.887 36.2159 119.067 35.668 119.862 34.572C120.452 33.7651 120.747 32.2055 120.747 29.8931V16.543H127.16V30.7603Z" fill="#EFEFEF" stroke="#EFEFEF" stroke-width="3.04745" stroke-miterlimit="10"/>
<path d="M98.2484 31.9138L95.524 38.4864H94.2924V43.5183H86.7555V38.4864H72.3516V32.5007L86.7555 9.21387H94.2924V31.9138H98.2484ZM86.7565 31.9138V21.4478L79.9265 31.9138H86.7565Z" fill="#CE000D"/>
<path d="M19.0425 22.6107H13.5437V42.29H6.90444V22.6107H1.5V17.1616H19.0425V22.6107Z" fill="#EFEFEF" stroke="#EFEFEF" stroke-width="3.04745" stroke-miterlimit="10"/>
<path d="M37.4855 42.2899H31.333V40.3907C30.7475 41.1155 30.156 41.6433 29.5582 41.9741C28.5124 42.5503 27.3231 42.8387 25.9903 42.8394C23.8365 42.8394 21.919 42.11 20.2379 40.651C18.2329 38.9104 17.2305 36.6058 17.2305 33.737C17.2305 30.8206 18.2579 28.4914 20.3127 26.7494C21.9432 25.3644 23.8173 24.672 25.935 24.672C27.1378 24.666 28.3267 24.9256 29.414 25.4317C30.0363 25.7261 30.6778 26.2109 31.3384 26.886V25.2108H37.4909L37.4855 42.2899ZM31.5227 33.7541C31.5318 33.244 31.4339 32.7375 31.2353 32.2663C31.0366 31.795 30.7414 31.3691 30.3681 31.0152C30.0049 30.6486 29.5695 30.3589 29.0885 30.1639C28.6075 29.9689 28.0911 29.8726 27.571 29.881C26.9996 29.868 26.4328 29.9834 25.9136 30.2184C25.3943 30.4534 24.9363 30.8018 24.5744 31.2371C23.964 31.9343 23.6282 32.8241 23.6282 33.7445C23.6282 34.6649 23.964 35.5547 24.5744 36.2519C25.3435 37.1588 26.3423 37.6119 27.571 37.6112C28.0906 37.622 28.6069 37.5285 29.0886 37.3365C29.5702 37.1444 30.007 36.8578 30.3724 36.4941C30.7452 36.1383 31.0395 35.7107 31.2369 35.238C31.4342 34.7653 31.5304 34.2576 31.5194 33.7466L31.5227 33.7541Z" fill="#EFEFEF" stroke="#EFEFEF" stroke-width="3.04745" stroke-miterlimit="10"/>
<path d="M62.7198 33.7374C62.7198 36.6069 61.7174 38.9115 59.7124 40.6514C58.032 42.1096 56.1145 42.8391 53.96 42.8398C52.6272 42.8398 51.4379 42.5513 50.3921 41.9745C49.7568 41.6309 49.1652 41.1031 48.6173 40.3911V42.2903H42.4648V14.6406H48.6173V26.8991C49.2779 26.2248 49.9194 25.7404 50.5417 25.4459C51.6229 24.9307 52.8097 24.6661 54.0109 24.6724C56.1286 24.6724 58.0028 25.3648 59.6333 26.7498C61.691 28.4911 62.7198 30.8203 62.7198 33.7374ZM56.3234 33.7555C56.3303 32.8273 55.9926 31.9284 55.3737 31.2279C55.0132 30.7904 54.5557 30.4399 54.0363 30.2034C53.5169 29.9668 52.9493 29.8505 52.3771 29.8632C51.8575 29.8632 51.3429 29.9639 50.8628 30.1596C50.3827 30.3554 49.9465 30.6422 49.579 31.0039C49.2116 31.3655 48.9201 31.7948 48.7212 32.2673C48.5224 32.7398 48.42 33.2462 48.42 33.7577C48.42 34.2691 48.5224 34.7755 48.7212 35.248C48.9201 35.7205 49.2116 36.1498 49.579 36.5115C49.9465 36.8731 50.3827 37.16 50.8628 37.3557C51.3429 37.5514 51.8575 37.6521 52.3771 37.6521C53.6058 37.6521 54.6047 37.1969 55.3737 36.2864C55.9903 35.5828 56.3276 34.6836 56.3234 33.7545V33.7555Z" fill="#EFEFEF" stroke="#EFEFEF" stroke-width="3.04745" stroke-miterlimit="10"/>
<path d="M104.839 25.1875C104.922 23.1975 105.097 21.278 105.056 19.3586C105.031 18.0867 104.79 16.7978 104.457 15.5633C103.666 12.6825 101.993 10.1676 99.6549 7.98777C99.4879 7.83946 99.3383 7.71782 99.4294 7.44788C99.8381 6.33182 99.4381 5.45796 98.3149 4.79644C96.4664 3.72051 94.5031 2.84815 92.4605 2.19515C88.8254 0.997997 85.096 0.371681 81.1757 0.82728C77.0311 1.31062 73.1271 2.36266 69.5895 4.30563C68.5325 4.8882 68.0826 5.82714 68.4327 6.85037C68.5411 7.15659 68.4577 7.31984 68.2159 7.52577C66.0183 9.41005 64.4127 11.6059 63.3633 14.1154C62.1989 16.8896 62.1154 19.7459 62.3735 22.6384C62.4483 23.5059 62.5231 24.3808 62.5979 25.2408C60.9337 25.5534 60.0762 26.6695 60.5673 28.3041C61.1744 30.3314 61.6514 32.3842 62.1935 34.4243C62.5426 35.7473 62.8678 37.0757 63.2419 38.3988C63.5747 39.5575 64.7315 40.1753 66.0888 39.9768C66.4802 39.9192 66.8792 39.8552 67.2619 39.7634C67.5199 39.6994 67.6283 39.7634 67.7703 39.9406C68.2278 40.5167 68.8545 40.9008 69.7012 40.808C70.7159 40.6949 71.7231 40.5455 72.714 40.3535C74.221 40.0547 74.9365 39.0315 74.6037 37.7447C74.3146 36.6351 74.0233 35.5261 73.7298 34.4179C72.8474 31.0412 71.9623 27.6625 71.0748 24.2816C70.7409 23.0236 69.634 22.377 68.1476 22.5968C67.2738 22.7249 66.413 22.8956 65.5457 23.0876C64.8637 23.237 64.339 23.5784 64.0279 24.1397C63.9281 24.3104 63.8533 24.4811 63.7622 24.6582C63.6116 23.3501 63.5118 22.0644 63.4457 20.7702C63.2039 16.5972 64.6187 12.8745 67.6315 9.58824C68.0316 9.15504 68.4815 8.75706 68.9553 8.30146C69.0637 8.55753 69.1298 8.74212 69.222 8.92031C69.6806 9.84751 70.8048 10.1601 71.8044 9.64052C72.096 9.49114 72.3627 9.32042 72.6457 9.16358C77.1232 6.69032 82.017 5.83674 87.2697 6.52708C90.3822 6.93893 93.2455 7.92055 95.817 9.50501C95.9796 9.60712 96.1495 9.69734 96.3255 9.77496C97.1657 10.1452 98.1566 9.88912 98.6228 9.17852C98.7052 9.05048 98.78 8.91497 98.8635 8.77306C98.922 8.81574 98.947 8.82321 98.9632 8.84455C99.2137 9.09316 99.463 9.34176 99.7048 9.59784C101.369 11.3524 102.605 13.4577 103.317 15.7532C103.924 17.7303 103.983 19.7341 103.859 21.7528C103.826 22.4432 103.759 23.125 103.709 23.7086C103.151 23.4803 102.624 23.1965 102.053 23.0396C101.345 22.8412 100.596 22.7345 99.8641 22.6064C98.2986 22.3429 97.1538 22.9831 96.8004 24.32C95.6186 28.812 94.4395 33.3022 93.2628 37.7906C92.9473 39.0272 93.6791 40.044 95.1189 40.3513C95.8778 40.5146 96.6367 40.6853 97.3956 40.7856C98.2629 40.8987 99.2017 40.9488 99.759 40.266C100.234 39.7048 100.716 39.7261 101.332 39.9032C101.424 39.9245 101.515 39.9395 101.607 39.9534C103.197 40.2094 104.337 39.5692 104.695 38.212C105.295 35.9586 105.877 33.6977 106.468 31.4442C106.8 30.1937 107.142 28.9496 107.475 27.7098V26.9992C107.103 25.8202 106.096 25.3091 104.839 25.1875ZM63.9466 26.0485C65.0621 30.2844 66.1604 34.4926 67.2673 38.737C66.7599 38.8288 66.3024 38.9429 65.8362 38.9995C65.0871 39.0998 64.5287 38.7434 64.3455 38.0616C63.7297 35.7299 63.1194 33.3982 62.5144 31.0665C62.2253 29.9583 61.934 28.8493 61.6406 27.7397C61.4411 26.965 61.8075 26.4593 62.7063 26.2822C63.1053 26.2043 63.5053 26.1328 63.9466 26.0485ZM106.245 27.6906C105.605 30.1638 104.959 32.635 104.306 35.1039C104.048 36.0856 103.79 37.0736 103.532 38.0541C103.324 38.8149 102.725 39.135 101.834 38.9717C101.443 38.8928 101.06 38.8224 100.602 38.737C101.709 34.5 102.816 30.2919 103.923 26.0485C104.398 26.1328 104.797 26.2043 105.197 26.2896C106.037 26.4604 106.437 26.9725 106.245 27.6906Z" fill="#383838"/>
<path d="M106.245 27.6904C105.604 30.1637 104.958 32.6348 104.305 35.1038C104.047 36.0854 103.789 37.0734 103.531 38.054C103.323 38.8147 102.724 39.1348 101.833 38.9716C101.442 38.8926 101.059 38.8222 100.602 38.7368C101.708 34.4999 102.815 30.2917 103.922 26.0483C104.397 26.1326 104.796 26.2041 105.196 26.2895C106.036 26.4602 106.436 26.9723 106.245 27.6904Z" fill="#EFEFEF"/>
<path d="M67.2656 38.7368C66.7582 38.8286 66.3007 38.9428 65.8345 38.9993C65.0853 39.0996 64.527 38.7432 64.3438 38.0614C63.728 35.7297 63.1176 33.398 62.5127 31.0663C62.2236 29.9581 61.9323 28.8492 61.6389 27.7395C61.4394 26.9649 61.8058 26.4591 62.7046 26.282C63.1035 26.2041 63.5036 26.1326 63.9448 26.0483C65.0604 30.2842 66.1586 34.4924 67.2656 38.7368Z" fill="#EFEFEF"/>
<path d="M102.942 25.1812C102.708 26.0839 102.459 27.0506 102.21 28.0247C101.27 31.6219 100.327 35.2187 99.3791 38.8151C99.1623 39.6612 98.605 39.9813 97.6228 39.8031C96.9484 39.6825 96.2752 39.547 95.6084 39.419C94.5601 39.2205 94.211 38.7724 94.4441 37.8985C95.3006 34.593 96.1632 31.2897 97.0319 27.9885C97.3322 26.866 97.6228 25.7425 97.9144 24.6189C98.1475 23.7376 98.6798 23.4325 99.7043 23.617C100.436 23.7451 101.169 23.8795 101.901 24.0289C102.568 24.1569 102.975 24.5976 102.942 25.1812Z" fill="white"/>
<path d="M72.2107 39.4262C71.545 39.5617 70.8707 39.6898 70.1964 39.8104C69.2976 39.9736 68.7154 39.6535 68.5073 38.8789C68.0075 36.9807 67.5164 35.0826 67.0177 33.178C66.3672 30.6685 65.7124 28.1568 65.0532 25.643C64.7778 24.6123 65.0695 24.2069 66.2458 23.9796C66.9949 23.8302 67.744 23.6947 68.4932 23.5528C68.5373 23.5466 68.5819 23.5441 68.6265 23.5453C69.2673 23.5315 69.7421 23.8654 69.908 24.4768C70.1834 25.4584 70.424 26.439 70.6821 27.4195C71.5898 30.8815 72.4933 34.3389 73.3924 37.7916C73.6678 38.7861 73.3686 39.2054 72.2107 39.4262Z" fill="white"/>
</svg>
